<?xml version="1.0" encoding="UTF-8"?><svg id="black_shield" xmlns="http://www.w3.org/2000/svg" viewBox="0 0 416.98 416.68"><g id="Ebene_1-2"><path d="M364.72,348.34c-.52.64-9.54,8.57-11.83,10.69C207.16,494.24-24.74,374.32,2.15,178.29,24.46,15.61,223.64-57.29,346.88,52c89.26,79.15,91.13,206.1,17.83,296.33ZM148.37,58.52c-13.28-1.69-29.85,1.25-43.5,0l30,18.5c-20.55,11.07-41.67,23.37-65.49,25.5-2.07,2.07.94,2.01,1.97,2.97,5.58,5.18,12.65,9.88,17.54,15.51,3.37,3.87,6.18,10.74,9.46,13.54,1.58,1.35,12.11,6.68,14.01,7,1.74.29,1.56.11,1.31-1.3-.47-2.66-1.81-6.42-1.58-8.98.81-9.16,12.24-10.49,17.48-16.53,1.55-.39,3.16-.4,4.73-.16,7.99,1.21,22.52,20.42,29.55,26.47,2.79,2.4,16.49,11.26,17.07,12.2,2.97,4.76-3.76,10.4-2.93,13.58l14.36,15.72c5.18-24.18,14.2-46.77,5.27-71.27-8.22-22.57-22.5-49.34-49.26-52.74ZM312.87,58.52h-41.5c-16.01,0-32.77,15.76-40.02,28.98-21.46,39.12-14.93,52.47-6.45,93.5.28,1.37-.98,2.93,1.46,2.52,2.27-5.76,14.17-13.2,13.32-19.28-.31-2.24-3.4-5.31-3.59-7.39-.35-3.87,13.22-11.74,16.79-14.82,7.54-6.5,24.8-29.17,34.44-27.53.88.15,14.59,8.71,15.21,9.35,5.49,5.63,2.24,12.14,1.83,18.66,4.32-3.23,10.9-4.72,15-8,3.63-2.9,5.32-7.86,8.48-11.52,6.17-7.15,13.79-12.99,21.01-18.99l-31.96-10.02-34.02-16.48,29.99-18.99ZM185.83,191.47c.41-1.47-.14-2.33-.91-3.5-.71-1.09-11.51-12.36-12.32-12.7-4.44-1.89-8.66,1.75-13.22,2.26-2.95.33-7.66.26-10.54-.47s-23.31-11.62-25.49-13.51c-4.62-4.01-2.23-8.75-4.49-11.51-1.26-1.54-20.75-10.58-22.27-10.35l-14.69,13.35c7.13,5.91,6.57,14.4,5.95,22.99-.35,4.84-3.99,8.59-.01,13.04,1.08,1.21,14.29,8.17,15.7,8.23,1.88.09,7.37-4.13,10.51-5.07,31.9-9.6,36.11,21.02,56.12,33.51,1.83,1.14,10.72,5.7,12.27,5.8,3.19.21,6.75-3.52,10.08-3.7s8.59,4.17,13.86,4.69c10.25,1.01,11.68-3.88,17.98-4.07,5.33-.16,8.4,3.97,12.75,2.88,1.9-.48,18.22-9.67,19.8-11.26,4.42-4.45,7.86-13.45,12.45-18.55,8.05-8.95,22.85-13.25,34.31-9.29,7.12,2.46,7.9,6.6,16.88,2.47,1.86-.86,10.83-6.58,11.19-7.88-1.65-11.2-5.22-24.99,4.1-33.79-3.28-2.37-11.75-13.88-15.23-13.37-1.83.27-17.84,8-19.68,9.43-4.99,3.9-1.39,7.92-6.55,12.45-3.02,2.65-23.45,13.39-27.1,13.9-6.63.92-19.89-3.7-22.42-2.43-1.83.91-10.49,12.76-12.89,15.03,0,1.58,7.48,4.59,8.43,6.49,1.44,2.87-2.28,9.52-4.48,11.55-9.32,8.58-16.59-2.48-26.56-2.63-7.87-.12-12.34,5.6-17.09,6.06-12.43,1.19-21.99-16.72-6.45-20.03ZM311.6,204.8c-6.75-5.59-25.32-2.75-32.2,2.75-14.58,11.64-2.6,30.84.18,45.77,8.07,43.31-.02,82.03-25.89,117.52-4.7,6.45-10.37,12.06-14.82,18.67,49.47-10.16,79.63-55.98,89.53-102.96,5.19-24.63,4.67-49.44,4.46-74.53-.99-5.43-5.35.62-8.74,1.28-9.29,1.83-8.73-5.36-12.53-8.51ZM178.87,389.51l-19.22-25.27c-23.08-35.08-29.11-73.64-20.28-114.74,1.5-6.96,7.1-20.3,7.48-25.61.53-7.54-7.22-17.17-13.97-19.88-5.54-2.22-18.53-2.4-23.99,0-6.25,2.74-5.54,11.3-15.27,9.27-2.99-.62-4.81-3.44-7.72-3.76-2.9,36.31-.3,74,13.53,107.96,14.02,34.45,42.1,64.26,79.46,72.03ZM257.86,232.52c-1.33-1.22-15.03,8.27-17.73,8.79-4.9.96-10.36-2.59-16.78-1.81-4.94.6-6.98,3.93-12.96,4.09-7.4.19-10.14-3.48-14.96-4.12-6.46-.86-12.63,2.84-17.81,1.84-4.06-.78-11.67-7.3-16.25-8.77-4.82.3-4.84,33.07-4.48,37.46.46,5.64,2.1,15.65,5.97,19.52.91-8.24,4.51-16.47,9.59-22.92.9-1.14,8.32-9.32,9.41-8.08,1.16,11.94.87,37.73,17,37.99-2.08-9.94-3.02-23.98.93-33.57,2.5-6.06,15.1-5.8,17.14-2.74,4.57,6.84,5.05,26.9,2.03,34.73,1.14,2.17,2.96,1.76,4.96,1.15,9.98-3.08,12.04-28.9,12.46-37.58,7.52,4.69,12.53,12.07,15.97,20.03,1.54,3.56,1.67,8.63,4.51,10.98,5.95-18.89,6.25-37.91,1-57ZM188.22,322.17c-6.7-6.22-8.67-20.22-11.36-28.64-2.02,1.67-4.13,4.91-5.18,7.3-4.26,9.7-5.31,19.52-1,29.38,1.1,2.51,12,19.62,13.64,21.36,6.48,6.84,37.2,6.18,45.56,2.46,5.93-2.64,6.8-8.22,9.97-13.03,2.05-3.11,4.97-5.33,6.53-8.47,6.12-12.27,4.32-29.11-5.5-39.01-1.88,9.78-6.74,33.79-20.25,31.81-4.84-.71-6.48-5.28-12.25-4.88-6.84.48-10.88,10.35-20.17,1.72Z"/></g></svg>