<?xml version="1.0" encoding="UTF-8"?><svg id="white_shield" xmlns="http://www.w3.org/2000/svg" viewBox="0 0 349 398.56"><g id="Ebene_1-2"><path d="M220.58,367.54c-.71.6-2.22.57-3.13,1.32-13.18,10.76-27.18,20.41-41.52,29.61-3.54,1-12.85-6.45-16.33-8.78C72.32,331.26,15.76,238.96,3.07,134.23c-1.93-15.9-4.65-50.88-1.9-65.62.25-1.35.71-3.35,1.78-4.22,1.91-1.57,13.66-4.28,17.24-5.76,21.31-8.79,41.28-24.6,49.02-46.98,1.15-3.34,1.16-10.62,4.42-11.58l202.67-.07c2.26.77,2.47,8.09,3.33,10.67,8.43,25.53,29.28,40.28,53.34,49.66,4.77,1.86,12.75,1.71,14.51,7.49,1.86,6.12-.76,15.77,1.53,22.54-.95,106.15-47.34,209.01-128.41,277.18ZM262.66,15.26l-176.31-.03c-2.92,5.51-4.22,11.52-7.59,16.97-6.02,9.74-22.35,25.74-31.93,32.07s-20.39,9.42-29.95,15.26c-1.09,32.6,3.41,65.04,11.33,96.54,18.13,72.09,61.55,140.62,120.47,185.8,8.08,6.19,17.47,11.04,25.89,16.81,79.64-46.81,132.59-131.31,151.08-221.59,3.84-18.77,6.84-41.56,7.32-60.68.15-5.9.41-12.07-1.04-17.79-.78-1.45-18.08-7.83-21.53-9.72-14.33-7.84-37.1-28.67-43.67-43.32-1.07-2.38-1.84-5.83-2.21-8.44l-1.85-1.87Z"/><path d="M120.91,95.87l-4.91,14.34c.65,2.34,15.02,5.8,18.19,6.88,2.71.92,5.68,3.43,8.32,3.75,5.2.63,13.23-4.21,19.41-1.97-7.23,6.75-4.32,13.45-4.01,21.99-10.64-2.52-20.92-3.29-30.99-8.01,6.93-3.71-9.66-15.67-12.55-15.98-1.93-.21-1.17.19-1.7,1.25-1.08,2.19-7.31,16.84-6.71,17.63,12.39,3.11,24.92,13.71,30.14,25.42s-7.54,10.75-6.25,22.21c.23,2.02,6.52,13.63,8.04,15.01,1.79,1.64,3.8,1.69,6.04.77,5.93-2.46,14-9.18,20.26-11.53,3.06-1.15,8.66-.15,9.32-3.71,1.11-6.02-17.42-21.82-24.59-18.06l4.01-14.99c3.22-1.02,1.23,3.18,3.6,3.93,6.91-1.47,13.77-3.29,20.94-2.99,6.39.27,12.61,2.71,18.55,2.6l1.89-3.54,4.01,14.99c-7.63-3.81-26.1,12.68-23.89,19.36.75,2.25,5.89,1.55,8.62,2.41,5.97,1.88,18.41,11.84,23.78,12.12,4.57.25,8.35-12,11.57-15.34,2.55-6.5-7.34-12.57-7.84-17.2-.6-5.55,9.67-18.9,13.86-22.75s11.67-6.32,16.77-8.74c1.21-1.9-3.91-11.75-4.95-14.41-.64-1.64.44-4.64-2.44-4.51-2.18.1-19.92,12.06-12.49,16.03-10.08,4.67-20.46,5.18-30.99,8.01-.41-9.15,4.16-16.02-5.01-21.99,5.74-2.41,11.61,1.24,16.57,1.95,6.96,1,22.05-8.96,30.39-9l-4.96-14.95c13.34.56,26.38-3.04,38.99-7.01-2.71,8.53-6.24,17.75-12.98,23.48,1.54,5.38,4.15,4.22,7.49,6.53,14.49,10.05,32.21,23.88,35.5,41.98-7.25-2.67-13.16-6.2-21.27-4.76-2.08.37-7.01,2.63-4.11,4.84.6.45,2.25.54,3.34,1.45,16.11,13.5,26.28,27.7,28.05,49.46-1.71,2.18-13.74-4.35-17-2.99.11,8.71,4.45,15.95,8.99,22.97-8.43,5.09-17.75,10.93-28.11,7.43-5.7-1.93-18.57-15.48-22.63-20.63-2.93-3.72-8.58-12.96-12.23-18.53-3.35-5.11-5.01-11.01-9.54-15.25-8.88,4.87-6.24,29.98-22.19,21.2-5.28-2.91-12.92-11.07-18.59-13.41-4.57-1.89-12.98-2.3-17.48-.45-4.89,2.01-11.7,9.3-16.32,12.08-19.62,11.8-14.3-10.84-24.41-19.4-1.94,0-7.39,11.52-8.51,13.29-6.71,10.62-20.21,31.17-32.05,39.13-8.36,5.62-26.61,2.26-31.59-6.93,4.13-6.68,7.44-13.41,7.64-21.5l-16.99,3.99c1.4-5.13,1.44-10.48,2.85-15.64,2.82-10.27,10.95-22.03,18.62-29.39,7.22-6.93,19.76-11.18-.85-11.87l-15.59,5.41c4.28-15.72,17.11-27.84,29.52-37.5,2.79-2.17,13.92-8.03,14.38-10.64-5.82-7.35-10.56-15.19-12.91-24.36,12.84,2.9,26.8,8.76,39.98,6Z"/><path d="M210.93,344.87c-2.16-7.96-.26-16.15,1.49-24,6.76-30.44,23.7-40.95,15.21-76.2-3.08-12.76-12.81-24.78-6.6-38.18,1.76-3.81,4.79-8.02,8.35-3.56s7.54,14.29,11.13,19.87c6.21,9.66,15.94,23.05,24.94,30.06,2.29,1.79,10.53,5.46,10.35,7.33-.25,2.59-8.77,19.02-10.7,22.36-13.51,23.43-34.87,43.69-54.16,62.33Z"/><path d="M140.91,343.87c-4.07.68-5.2-4.46-7.6-6.89-17.8-18-35.71-34.19-48.44-56.62-1.2-5.02-9.06-15.82-8.93-20.06.09-3,8.41-4.92,10.91-7,9.62-8.04,21.55-25.63,28.01-36.21,2.18-3.58,3.92-9.12,6.09-12.46.63-.96,2.89-2.12,3.46-3.74,15.71,10.46,4.15,26.31.15,38.9-10.95,34.46,3.93,45.26,12.28,74.66,2.71,9.54,4.74,19.46,4.07,29.42Z"/><path d="M179.92,223.87l7.5,9c12.45,9.6,10.68-9.18,12.63-16.87l12.87-4.13c-3.64,14.89,4.69,28.65,8.31,42.19,8.35,31.27-13.41,42.61-24.85,65.76-1.71,3.46-7.46,18.57-7.46,21.54v14.5c-4.05-2.7-9-14.01-9-18.5v-113.5Z"/><path d="M138.92,211.87l12.57,4.93c.88,3.2,1.38,18.02,4.06,18.95,7.33,2.55,11.3-5.95,15.37-9.88v113.5c0,3.08-5.35,15.74-8.99,17.5.34-2.96,1.14-5.41,1.07-8.52-.92-37.44-39.02-53.4-33.99-89.9,1.19-8.63,9.91-23.12,9.91-32.09v-14.5Z"/><path d="M228.92,52.86c-1.54.07-3.13.33-4.55.96-10.62,4.7-23.75,15.16-30.86,24.14-3.19,4.02-13.98,25.01-18.1,24.67-2.11-1.72-4.19-3.71-5.9-5.83-3.72-4.63-5.55-10.83-8.94-15.56-5.07-7.06-15.65-16.43-23.17-21.32-4.78-3.11-9.7-6.27-15.47-7.04-.87-1.11,10.58-5.32,11.75-5.73,23.57-8.28,50.29-9.24,74.47-2.98,6.38,1.65,15.77,4.8,20.77,8.72Z"/><path d="M135.52,66.29c4.29,2.57,9.51,6.83,12.92,10.54,1.12,1.22,2.82,2.08,2.48,4.04-6.86,1.34-15.97,1.97-22.45,4.05-2.92.93-5.05,3.24-7.25,3.74-6.33,1.46-30.84-4.03-36.01-8.09-1.4-1.1-4.7-7.56-5.05-9.44-.43-2.33-.99-15.27,1.26-15.24,6.96,8.76,16.96-.23,25.95-.05,7.95.16,21.2,6.29,28.15,10.45Z"/><path d="M268.63,58.52c.15-.06.54-3.35,1.78-.65,3.65,7.91-1.05,21.87-9.38,25.41-4.54,1.93-25.13,6.25-29.67,5.64-3.46-.46-4.09-2.88-7.19-3.81-6.28-1.9-14.69-2.78-21.54-4.53-1.12-.29-1.7.03-2.71.29l5.96-7.63c10.2-6.07,25.81-17.68,38.52-17.44,8.85.17,14.15,6.48,24.22,2.73Z"/></g></svg>