<?xml version="1.0" encoding="UTF-8"?><svg id="skull" xmlns="http://www.w3.org/2000/svg" viewBox="0 0 333.21 420.2"><g id="Ebene_1-2"><path d="M157.97.41c71.44-5.59,153.17,46.8,150.24,124.24-1,26.31-7.74,74.76,10.54,96.38,5.95,7.03,16.25,5.59,14.19,17.34-1.72,9.81-23.89,30.96-27.75,42.25-2.61,4.35-13.55,2.51-15.54,6.47-2.18,4.32,4.05,9.58-.04,14.95-1.67,2.2-9.83,4.15-13.48,7.52-9.84,9.07-18.03,28.63-14.69,41.77,2.01,7.91,8.04,12.26,2.56,21.1-6.47,10.44-22.4,20.85-30.65,33.35-3.78,5.72-3.01,11.98-11.77,13.23-34.56-2.35-73.97,3.44-107.96.14-11.39-1.11-10.98-9.72-16.47-17.53-7.17-10.19-19.27-18.1-26.5-27.5-8.52-11.07.13-15.14,1.44-24.61,1.76-12.74-4.87-30.75-14.41-39.41-3.37-3.06-12.5-6.17-13.94-8.06-3.39-4.44.99-10.08-1.05-14.96-1.18-2.36-7.98-2.73-10.9-4.1-5.26-2.45-11.91-15.69-15.8-21.2-3.47-4.91-15.05-18.49-15.75-23.25-1.73-11.68,6.76-10.19,12.83-16.04,20.27-19.54,12.79-74.23,12.12-99.9C23.27,49.66,91.76,5.58,157.97.41ZM157.97,16.41c-33.53,2.76-77.68,21.37-100.31,46.69-36.88,41.25,1.85,113.65-26.66,159.34-2.35,3.76-6.51,5.59-6.76,11.25-.18,4.01,10.08,28.1,12.73,32.12,13.02,19.72,26.42-5.62,41.47-2.46,11.54,2.42,21.45,23.24,31.43,27.56,11.49,4.97,30.23-1.26,43.79.21,5.42.58,9.44,5.06,13,5.06,3.91,0,7.02-4.48,11.98-5.08,13.35-1.62,32.19,4.48,43.51.51,8.87-3.1,17.64-18.44,25.53-24.47,18.94-14.45,29.5,16.42,45.5,2.5,3.96-3.44,15.96-30.94,15.99-36.02.03-5.77-3.9-6.91-6.43-10.59-23.6-34.4-2.66-94.26-13.44-133.56-12.74-46.46-87-76.71-131.35-73.05ZM102.29,354.99c-.38-4.41,2.69-7.51,2.61-12.11-.3-16.24-16.74-50.07-27.76-62.25-2.21-2.45-4.89-6.18-8.44-5.59-1.03.17-8.45,8.88-9.01,10.08-3.04,6.46,6.92,9.64,10.97,13,9.74,8.12,17.1,21.44,16.52,34.45-.48,10.76-7.94,22.27-5.77,32.8,1.11,5.37,10.24,12.77,13.74,17.26,6.4,8.19,13.79,24.19,24.51,25.49,29.91-2.15,63.61,2.78,93.06.01,12.3-1.16,15.34-12.44,22.06-20.94,3.34-4.21,15.46-16.79,16.63-20.37,3.42-10.47-4.61-23.52-5.23-34.26-.72-12.49,6.72-26.03,15.98-33.99,8.33-7.15,18.33-7.17,6.52-19.5-6.17-6.45-7.06-4.46-12.48,1.54-10.9,12.07-28.43,46.97-27.86,63,.13,3.71,4.31,8.16,1.91,11.78-.64.97-18.37,9.6-20.82,10.44-10.78,3.68-15.46,2.19-25.71,2.2-16.54.01-45.44,2.93-59.81-2.19-7.57-2.7-14.14-7.97-21.62-10.88ZM106.73,300.12c-5.97,8.1,1.86,22.81,8.94,27.98,3.36,2.46,9.85,6.53,10.54.56.26-2.24-1-21.42-1.54-22.55-1.81-3.8-7.7-2.51-10.78-3.22-2.76-.65-4.44-2.59-7.16-2.76ZM207.17,311.61c-.63,5.59,0,13.12,0,19,0,2.7,5.49.24,6.67-.33,10.53-5.04,16.16-17.13,14.17-28.51l-2.3-1.67c-2.34.34-4.04,2.24-6.28,2.77-7.83,1.85-11.07-1.82-12.26,8.74ZM158.86,305.42c-3.73-3.4-19.77-5.94-24.09-3.2-5.74,3.63-1.75,19.17,1.56,24.23,5.09,7.78,23.83,17.58,26.6,3.94,1-4.9-.36-21.58-4.07-24.96ZM186.95,301.39c-13.35,1.66-16.06,5.31-16.77,18.23-.47,8.55-1.21,18.67,10.39,17.42,12.61-1.36,20.14-13.64,20.65-25.41.48-11.16-4.39-11.47-14.26-10.24ZM129.1,361.07c1.12-.81.34-14.17,0-16.4-1.44-9.6-17.79-18.23-18.98-4.11-.99,11.7,7.75,19.55,18.98,20.51ZM221.91,335.36c-.47-.5-3.74-1.94-4.49-2.06-12.22-1.94-16.18,18.81-13.31,27.38,8.78,1.03,18.23-7.28,19.06-16.08.22-2.34.32-7.57-1.26-9.25ZM139.67,336.44c-7.01-.07-9.01,23.09,2.51,27.15,4.35,1.54,17.92,2.57,18.96-3.02,3.84-20.59-9.2-15.32-21.47-24.13ZM194.86,361.8c4.58-4.15,5.97-17.58,2.76-22.63-3.67-5.77-7.53-.2-11.46,1.42-14.32,5.9-16.73,4.51-12.81,23.34,5.48.39,17.51,1.49,21.52-2.14Z"/><path d="M98.52,227.46c-2.49,2.12-3.82,5.83-7.65,7.84-6.34,3.33-11.87,1.13-16.13-4.27-1.56-1.98-12.41-18.35-12.55-19.52-1.01-7.96,11.85-21.35,14.76-30.13,2.12-6.42.94-14.31,7.86-18.14,15.35-8.5,33.72,7.42,48.08,11.65,11.5,10.33,5.95,21.85-3.31,31.11s-21.38,13.24-31.05,21.45Z"/><path d="M235.82,228.46c-12.57-10.6-43.29-22.59-41.66-41.84,1.08-12.74,12.25-13.42,21.39-17.63,9.83-4.52,12.48-9,25.11-7.86,15.19,1.37,12.35,11.84,16.32,22.67,2.66,7.26,14.05,19.61,14.05,25.81,0,4.89-5.92,10.21-8.69,14.18-3.66,5.26-4.8,12.21-12.94,13.14-7.37.84-9.62-5.12-13.58-8.46Z"/><path d="M160.42,197.36c2.25-2.17,11.06-1.57,13.24.75,1.52,1.61,5.85,19.82,8.33,24.67,2.24,4.38,9.56,10.79,10.13,13.88,1.73,9.47-6.11,11.83-12,16.9-2.11,1.82-2.14,4.53-5.67,5.33-4.51,1.02-13.88.64-17.99-1.58-1.25-.68-12.38-10.49-13.33-11.68-7.3-9.17,1.45-12.53,5.85-19.21s8.44-26.18,11.43-29.06Z"/></g></svg>